<?xml version="1.0" encoding="UTF-8"?>
<svg width="172px" height="46px" viewBox="0 0 172 46" version="1.1" xmlns="http://www.w3.org/2000/svg" xmlns:xlink="http://www.w3.org/1999/xlink">
    <!-- Generator: Sketch 41.2 (35397) - http://www.bohemiancoding.com/sketch -->
    <title>LOGO-Black</title>
    <desc>Created with Sketch.</desc>
    <defs></defs>
    <g id="Page-1" stroke="none" stroke-width="1" fill="none" fill-rule="evenodd" fill-opacity="0.8">
        <g id="Logo-Vector" fill="#110F12">
            <path d="M11.4,1.776 L11.4,34.704 L24.56,34.704 L24.56,44 L0.424,44 L0.424,1.776 L11.4,1.776 Z M38.952,22.888 C38.952,24.5680084 39.2693302,26.1173262 39.904,27.536 C40.5386698,28.9546738 41.3973279,30.1866614 42.48,31.232 C43.5626721,32.2773386 44.8226595,33.0893304 46.26,33.668 C47.6973405,34.2466696 49.2186586,34.536 50.824,34.536 C52.4293414,34.536 53.9506595,34.2466696 55.388,33.668 C56.8253405,33.0893304 58.0946612,32.2773386 59.196,31.232 C60.2973388,30.1866614 61.1653302,28.9546738 61.8,27.536 C62.4346698,26.1173262 62.752,24.5680084 62.752,22.888 C62.752,21.2079916 62.4346698,19.6586738 61.8,18.24 C61.1653302,16.8213262 60.2973388,15.5893386 59.196,14.544 C58.0946612,13.4986614 56.8253405,12.6866696 55.388,12.108 C53.9506595,11.5293304 52.4293414,11.24 50.824,11.24 C49.2186586,11.24 47.6973405,11.5293304 46.26,12.108 C44.8226595,12.6866696 43.5626721,13.4986614 42.48,14.544 C41.3973279,15.5893386 40.5386698,16.8213262 39.904,18.24 C39.2693302,19.6586738 38.952,21.2079916 38.952,22.888 Z M27.472,22.888 C27.472,19.7519843 28.0506609,16.8306802 29.208,14.124 C30.3653391,11.4173198 31.9706564,9.05601008 34.024,7.04 C36.0773436,5.02398992 38.5319857,3.44667236 41.388,2.308 C44.2440143,1.16932764 47.3893162,0.6 50.824,0.6 C54.2213503,0.6 57.357319,1.16932764 60.232,2.308 C63.106681,3.44667236 65.5799896,5.02398992 67.652,7.04 C69.7240104,9.05601008 71.3386609,11.4173198 72.496,14.124 C73.6533391,16.8306802 74.232,19.7519843 74.232,22.888 C74.232,26.0240157 73.6533391,28.9453198 72.496,31.652 C71.3386609,34.3586802 69.7240104,36.7199899 67.652,38.736 C65.5799896,40.7520101 63.106681,42.3293276 60.232,43.468 C57.357319,44.6066724 54.2213503,45.176 50.824,45.176 C47.3893162,45.176 44.2440143,44.6066724 41.388,43.468 C38.5319857,42.3293276 36.0773436,40.7520101 34.024,38.736 C31.9706564,36.7199899 30.3653391,34.3586802 29.208,31.652 C28.0506609,28.9453198 27.472,26.0240157 27.472,22.888 Z M99.928,20.368 L121.712,20.368 C121.712,22.6080112 121.618668,24.6426575 121.432,26.472 C121.245332,28.3013425 120.872003,29.9999922 120.312,31.568 C119.527996,33.7706777 118.464007,35.7213248 117.12,37.42 C115.775993,39.1186752 114.198676,40.5373276 112.388,41.676 C110.577324,42.8146724 108.589344,43.6826637 106.424,44.28 C104.258656,44.8773363 101.981345,45.176 99.592,45.176 C96.3066502,45.176 93.3106802,44.6346721 90.604,43.552 C87.8973198,42.4693279 85.573343,40.9480098 83.632,38.988 C81.690657,37.0279902 80.1786721,34.6760137 79.096,31.932 C78.0133279,29.1879863 77.472,26.1546833 77.472,22.832 C77.472,19.5466502 78.0039947,16.5320137 79.068,13.788 C80.1320053,11.0439863 81.6439902,8.70134304 83.604,6.76 C85.5640098,4.81865696 87.9253195,3.30667208 90.688,2.224 C93.4506805,1.14132792 96.5306497,0.6 99.928,0.6 C104.333355,0.6 108.197317,1.55199048 111.52,3.456 C114.842683,5.36000952 117.474657,8.30931336 119.416,12.304 L109,16.616 C108.029328,14.3013218 106.769341,12.640005 105.22,11.632 C103.670659,10.623995 101.906677,10.12 99.928,10.12 C98.2853251,10.12 96.7920067,10.4279969 95.448,11.044 C94.1039933,11.6600031 92.9560048,12.5373276 92.004,13.676 C91.0519952,14.8146724 90.305336,16.1866586 89.764,17.792 C89.222664,19.3973414 88.952,21.1893234 88.952,23.168 C88.952,24.960009 89.185331,26.6213257 89.652,28.152 C90.118669,29.6826743 90.818662,31.0079944 91.752,32.128 C92.685338,33.2480056 93.8426598,34.1159969 95.224,34.732 C96.6053402,35.3480031 98.2106575,35.656 100.04,35.656 C101.122672,35.656 102.167995,35.5346679 103.176,35.292 C104.184005,35.0493321 105.089329,34.657336 105.892,34.116 C106.694671,33.574664 107.357331,32.874671 107.88,32.016 C108.402669,31.157329 108.757332,30.1120062 108.944,28.88 L99.928,28.88 L99.928,20.368 Z M136.432,22.888 C136.432,24.5680084 136.74933,26.1173262 137.384,27.536 C138.01867,28.9546738 138.877328,30.1866614 139.96,31.232 C141.042672,32.2773386 142.302659,33.0893304 143.74,33.668 C145.177341,34.2466696 146.698659,34.536 148.304,34.536 C149.909341,34.536 151.430659,34.2466696 152.868,33.668 C154.305341,33.0893304 155.574661,32.2773386 156.676,31.232 C157.777339,30.1866614 158.64533,28.9546738 159.28,27.536 C159.91467,26.1173262 160.232,24.5680084 160.232,22.888 C160.232,21.2079916 159.91467,19.6586738 159.28,18.24 C158.64533,16.8213262 157.777339,15.5893386 156.676,14.544 C155.574661,13.4986614 154.305341,12.6866696 152.868,12.108 C151.430659,11.5293304 149.909341,11.24 148.304,11.24 C146.698659,11.24 145.177341,11.5293304 143.74,12.108 C142.302659,12.6866696 141.042672,13.4986614 139.96,14.544 C138.877328,15.5893386 138.01867,16.8213262 137.384,18.24 C136.74933,19.6586738 136.432,21.2079916 136.432,22.888 Z M124.952,22.888 C124.952,19.7519843 125.530661,16.8306802 126.688,14.124 C127.845339,11.4173198 129.450656,9.05601008 131.504,7.04 C133.557344,5.02398992 136.011986,3.44667236 138.868,2.308 C141.724014,1.16932764 144.869316,0.6 148.304,0.6 C151.70135,0.6 154.837319,1.16932764 157.712,2.308 C160.586681,3.44667236 163.05999,5.02398992 165.132,7.04 C167.20401,9.05601008 168.818661,11.4173198 169.976,14.124 C171.133339,16.8306802 171.712,19.7519843 171.712,22.888 C171.712,26.0240157 171.133339,28.9453198 169.976,31.652 C168.818661,34.3586802 167.20401,36.7199899 165.132,38.736 C163.05999,40.7520101 160.586681,42.3293276 157.712,43.468 C154.837319,44.6066724 151.70135,45.176 148.304,45.176 C144.869316,45.176 141.724014,44.6066724 138.868,43.468 C136.011986,42.3293276 133.557344,40.7520101 131.504,38.736 C129.450656,36.7199899 127.845339,34.3586802 126.688,31.652 C125.530661,28.9453198 124.952,26.0240157 124.952,22.888 Z" id="LOGO-Black"></path>
        </g>
    </g>
</svg>