<?xml version="1.0" encoding="UTF-8"?>
<svg width="172px" height="46px" viewBox="0 0 172 46" version="1.1" xmlns="http://www.w3.org/2000/svg" xmlns:xlink="http://www.w3.org/1999/xlink">
    <!-- Generator: Sketch 41.2 (35397) - http://www.bohemiancoding.com/sketch -->
    <title>LOGO-White</title>
    <desc>Created with Sketch.</desc>
    <defs></defs>
    <g id="Page-1" stroke="none" stroke-width="1" fill="none" fill-rule="evenodd" fill-opacity="0.8">
        <g id="Logo-Vector" transform="translate(0.000000, -73.000000)" fill="#FFFFFF">
            <path d="M11.4,74.776 L11.4,107.704 L24.56,107.704 L24.56,117 L0.424,117 L0.424,74.776 L11.4,74.776 Z M38.952,95.888 C38.952,97.5680084 39.2693302,99.1173262 39.904,100.536 C40.5386698,101.954674 41.3973279,103.186661 42.48,104.232 C43.5626721,105.277339 44.8226595,106.08933 46.26,106.668 C47.6973405,107.24667 49.2186586,107.536 50.824,107.536 C52.4293414,107.536 53.9506595,107.24667 55.388,106.668 C56.8253405,106.08933 58.0946612,105.277339 59.196,104.232 C60.2973388,103.186661 61.1653302,101.954674 61.8,100.536 C62.4346698,99.1173262 62.752,97.5680084 62.752,95.888 C62.752,94.2079916 62.4346698,92.6586738 61.8,91.24 C61.1653302,89.8213262 60.2973388,88.5893386 59.196,87.544 C58.0946612,86.4986614 56.8253405,85.6866696 55.388,85.108 C53.9506595,84.5293304 52.4293414,84.24 50.824,84.24 C49.2186586,84.24 47.6973405,84.5293304 46.26,85.108 C44.8226595,85.6866696 43.5626721,86.4986614 42.48,87.544 C41.3973279,88.5893386 40.5386698,89.8213262 39.904,91.24 C39.2693302,92.6586738 38.952,94.2079916 38.952,95.888 Z M27.472,95.888 C27.472,92.7519843 28.0506609,89.8306802 29.208,87.124 C30.3653391,84.4173198 31.9706564,82.0560101 34.024,80.04 C36.0773436,78.0239899 38.5319857,76.4466724 41.388,75.308 C44.2440143,74.1693276 47.3893162,73.6 50.824,73.6 C54.2213503,73.6 57.357319,74.1693276 60.232,75.308 C63.106681,76.4466724 65.5799896,78.0239899 67.652,80.04 C69.7240104,82.0560101 71.3386609,84.4173198 72.496,87.124 C73.6533391,89.8306802 74.232,92.7519843 74.232,95.888 C74.232,99.0240157 73.6533391,101.94532 72.496,104.652 C71.3386609,107.35868 69.7240104,109.71999 67.652,111.736 C65.5799896,113.75201 63.106681,115.329328 60.232,116.468 C57.357319,117.606672 54.2213503,118.176 50.824,118.176 C47.3893162,118.176 44.2440143,117.606672 41.388,116.468 C38.5319857,115.329328 36.0773436,113.75201 34.024,111.736 C31.9706564,109.71999 30.3653391,107.35868 29.208,104.652 C28.0506609,101.94532 27.472,99.0240157 27.472,95.888 Z M99.928,93.368 L121.712,93.368 C121.712,95.6080112 121.618668,97.6426575 121.432,99.472 C121.245332,101.301342 120.872003,102.999992 120.312,104.568 C119.527996,106.770678 118.464007,108.721325 117.12,110.42 C115.775993,112.118675 114.198676,113.537328 112.388,114.676 C110.577324,115.814672 108.589344,116.682664 106.424,117.28 C104.258656,117.877336 101.981345,118.176 99.592,118.176 C96.3066502,118.176 93.3106802,117.634672 90.604,116.552 C87.8973198,115.469328 85.573343,113.94801 83.632,111.988 C81.690657,110.02799 80.1786721,107.676014 79.096,104.932 C78.0133279,102.187986 77.472,99.1546833 77.472,95.832 C77.472,92.5466502 78.0039947,89.5320137 79.068,86.788 C80.1320053,84.0439863 81.6439902,81.701343 83.604,79.76 C85.5640098,77.818657 87.9253195,76.3066721 90.688,75.224 C93.4506805,74.1413279 96.5306497,73.6 99.928,73.6 C104.333355,73.6 108.197317,74.5519905 111.52,76.456 C114.842683,78.3600095 117.474657,81.3093134 119.416,85.304 L109,89.616 C108.029328,87.3013218 106.769341,85.640005 105.22,84.632 C103.670659,83.623995 101.906677,83.12 99.928,83.12 C98.2853251,83.12 96.7920067,83.4279969 95.448,84.044 C94.1039933,84.6600031 92.9560048,85.5373276 92.004,86.676 C91.0519952,87.8146724 90.305336,89.1866586 89.764,90.792 C89.222664,92.3973414 88.952,94.1893234 88.952,96.168 C88.952,97.960009 89.185331,99.6213257 89.652,101.152 C90.118669,102.682674 90.818662,104.007994 91.752,105.128 C92.685338,106.248006 93.8426598,107.115997 95.224,107.732 C96.6053402,108.348003 98.2106575,108.656 100.04,108.656 C101.122672,108.656 102.167995,108.534668 103.176,108.292 C104.184005,108.049332 105.089329,107.657336 105.892,107.116 C106.694671,106.574664 107.357331,105.874671 107.88,105.016 C108.402669,104.157329 108.757332,103.112006 108.944,101.88 L99.928,101.88 L99.928,93.368 Z M136.432,95.888 C136.432,97.5680084 136.74933,99.1173262 137.384,100.536 C138.01867,101.954674 138.877328,103.186661 139.96,104.232 C141.042672,105.277339 142.302659,106.08933 143.74,106.668 C145.177341,107.24667 146.698659,107.536 148.304,107.536 C149.909341,107.536 151.430659,107.24667 152.868,106.668 C154.305341,106.08933 155.574661,105.277339 156.676,104.232 C157.777339,103.186661 158.64533,101.954674 159.28,100.536 C159.91467,99.1173262 160.232,97.5680084 160.232,95.888 C160.232,94.2079916 159.91467,92.6586738 159.28,91.24 C158.64533,89.8213262 157.777339,88.5893386 156.676,87.544 C155.574661,86.4986614 154.305341,85.6866696 152.868,85.108 C151.430659,84.5293304 149.909341,84.24 148.304,84.24 C146.698659,84.24 145.177341,84.5293304 143.74,85.108 C142.302659,85.6866696 141.042672,86.4986614 139.96,87.544 C138.877328,88.5893386 138.01867,89.8213262 137.384,91.24 C136.74933,92.6586738 136.432,94.2079916 136.432,95.888 Z M124.952,95.888 C124.952,92.7519843 125.530661,89.8306802 126.688,87.124 C127.845339,84.4173198 129.450656,82.0560101 131.504,80.04 C133.557344,78.0239899 136.011986,76.4466724 138.868,75.308 C141.724014,74.1693276 144.869316,73.6 148.304,73.6 C151.70135,73.6 154.837319,74.1693276 157.712,75.308 C160.586681,76.4466724 163.05999,78.0239899 165.132,80.04 C167.20401,82.0560101 168.818661,84.4173198 169.976,87.124 C171.133339,89.8306802 171.712,92.7519843 171.712,95.888 C171.712,99.0240157 171.133339,101.94532 169.976,104.652 C168.818661,107.35868 167.20401,109.71999 165.132,111.736 C163.05999,113.75201 160.586681,115.329328 157.712,116.468 C154.837319,117.606672 151.70135,118.176 148.304,118.176 C144.869316,118.176 141.724014,117.606672 138.868,116.468 C136.011986,115.329328 133.557344,113.75201 131.504,111.736 C129.450656,109.71999 127.845339,107.35868 126.688,104.652 C125.530661,101.94532 124.952,99.0240157 124.952,95.888 Z" id="LOGO-White"></path>
        </g>
    </g>
</svg>